# author: headus 3D tools
#  using: ply2obj v1.12
#   from: uvlayout v2.11.00
# 176 vertices
v -5.0084100 29.2141647 4.2657619
v -4.9288812 29.1931038 4.2740560
v -4.9628231 29.1175690 4.2904792
v -5.0354099 29.1390228 4.2847008
v -4.1917382 29.3002395 4.6822609
v -4.1964861 29.2164516 4.7072959
v -4.2468072 29.1847305 4.6569328
v -4.2402149 29.2586173 4.6255841
v -3.8859702 30.1628265 5.8457281
v -3.8618570 30.1098155 5.7942474
v -3.8737041 30.1505470 5.7162938
v -3.8921120 30.2069930 5.7769390
v -6.1039461 26.3676071 6.8912497
v -6.0273731 26.3446403 6.8981631
v -5.3135862 26.4124085 7.2625109
v -5.2633672 26.4439105 7.3165891
v -4.4384122 30.5799256 4.6224399
v -4.3991161 30.5088501 4.6079030
v -4.4416333 30.4231090 4.5522828
v -4.4793711 30.5453069 4.5655461
v -4.9295531 27.3351059 8.4014867
v -4.9546872 27.3922041 8.4519503
v -6.0255243 29.9896240 4.6746049
v -6.0704489 29.9274749 4.7013812
v -6.0926662 29.9854526 4.7484431
v -6.0370960 30.0584602 4.7317128
v -7.1601784 27.2112269 7.3564137
v -7.1352360 27.1541195 7.3058639
v -4.9197832 30.9501075 6.2620569
v -4.9087721 30.9823475 6.1857421
v -4.9868999 31.0051041 6.1753505
v -4.9962979 30.9733621 6.2554723
v -5.0412378 30.9562169 4.8211222
v -5.0190439 30.9882353 4.9201942
v -4.9434453 30.9651145 4.8262573
v -4.9842301 30.9293081 4.7682109
v -5.6975751 30.9141921 5.9031960
v -5.6616149 30.9472257 5.8372314
v -5.7092891 30.9143677 5.7777474
v -5.7482701 30.8830796 5.8493372
v -6.7643362 28.1419182 8.5087311
v -6.8150312 28.1108073 8.4548723
v -5.9861541 28.1788540 8.8666375
v -6.0626689 28.2021064 8.8600535
v -6.5510550 29.0694714 5.8512230
v -6.5330840 29.1203766 5.9096509
v -6.5273772 29.0515270 5.9578701
v -6.5463401 29.0021858 5.9002780
v -6.6855952 29.4513206 6.1943821
v -6.6782883 29.3939456 6.2588633
v -6.6312433 29.3414363 6.2280413
v -6.6309519 29.3973674 6.1640931
v -7.4440326 29.7335510 6.3073773
v -7.3686830 29.7292671 6.3326455
v -7.3314910 29.7639560 6.2653425
v -7.4093938 29.7711754 6.2439863
v -7.5103914 26.5007665 8.2486691
v -7.4899762 26.5495965 8.3089811
v -7.5931534 26.8416461 8.5774795
v -7.6446454 26.8931369 8.6111847
v -6.9597880 29.9285831 5.4442101
v -6.9117452 29.9110832 5.5166672
v -6.8341690 29.8131141 5.5439769
v -6.9040810 29.8855933 5.4178072
v -8.3314534 27.2265337 8.6847203
v -8.4072124 27.2312257 8.6586963
v -7.0406170 28.8320541 5.3967481
v -7.0454278 28.7600555 5.4352632
v -7.1203512 28.7656937 5.4090363
v -7.1195550 28.8435116 5.3727541
v -8.0835762 26.2631585 7.7611803
v -8.0077784 26.2583159 7.7870623
v -7.9423492 29.4907110 5.8448030
v -7.8988402 29.5326060 5.7899654
v -7.9167452 29.4849261 5.7292801
v -7.9627754 29.4430236 5.7850491
v -7.2140662 29.7175884 5.1864029
v -7.3235702 29.7187080 5.2477761
v -7.1999762 29.8116378 5.2239743
v -7.1419422 29.7668743 5.1973529
v -7.8670316 29.1546421 5.5234332
v -7.8260270 29.2119942 5.4786358
v -7.7710614 29.1650314 5.4449301
v -7.8160096 29.1029511 5.4893240
v -8.8289248 26.6548973 7.8728283
v -8.7779016 26.6032065 7.8387191
v -8.9047604 26.9886967 8.1969431
v -8.9255848 26.9400309 8.1366371
v -6.0629521 32.9530983 1.4141889
v -6.0387722 33.0031055 1.4754399
v -6.0238419 32.9294167 1.5138347
v -6.0485012 32.8849107 1.4574997
v -6.1666670 33.3369455 1.7706879
v -6.1472213 33.2807199 1.8349535
v -6.1028172 33.2270359 1.8000067
v -6.1116501 33.2795071 1.7395575
v -6.9027162 33.6578835 1.9313029
v -6.8275360 33.6510011 1.9498099
v -6.7861000 33.6739615 1.8747639
v -6.8690992 33.6864703 1.8622161
v -8.4567892 26.6297875 7.3345063
v -8.4312908 26.6764503 7.3945973
v -8.5093992 26.9728737 7.6780111
v -8.5568000 27.0259533 7.7150815
v -6.5299903 33.6369943 1.2361359
v -6.4725771 33.6275943 1.2946399
v -6.3950682 33.5485723 1.2953081
v -6.4763060 33.5897371 1.2045449
v -9.2345508 27.3945139 7.8297415
v -9.3111736 27.4031197 7.8075271
v -6.5875803 32.7441407 0.9772497
v -6.5907080 32.6685679 1.0068527
v -6.6641882 32.6803779 0.9838061
v -6.6719990 32.7698367 0.9586329
v -9.0720016 26.4242457 6.8639323
v -8.9953520 26.4154911 6.8859993
v -7.4437364 33.4418527 1.4818729
v -7.3935252 33.4778175 1.4255681
v -7.4164402 33.4301531 1.3628549
v -7.4696356 33.3953703 1.4218129
v -6.8063522 33.4511647 0.9703879
v -6.8986030 33.4774855 1.0165381
v -6.7896310 33.5338787 1.0208679
v -6.7343588 33.4861759 0.9894927
v -7.3972020 33.1071855 1.1426391
v -7.3494942 33.1624187 1.1051081
v -7.2962762 33.1111299 1.0673195
v -7.3502972 33.0539323 1.1051831
v -9.8037660 26.8530707 7.0206001
v -9.7568600 26.7998199 6.9831439
v -9.8499080 27.1887567 7.3588773
v -9.8758080 27.1422729 7.2988173
v -5.5167632 33.1766283 -2.3393285
v -5.4569559 33.1276971 -2.3687581
v -5.5106210 33.0672799 -2.3443281
v -5.5635910 33.1135139 -2.3157069
v -4.2967820 32.7357523 -2.3183753
v -4.3266130 32.6555327 -2.2998137
v -4.4004789 32.6568567 -2.3246525
v -4.3756881 32.7290347 -2.3503701
v -2.7674388 33.3112955 -0.9593641
v -2.7893446 33.2675859 -1.0197909
v -2.8113208 33.3277019 -1.0812625
v -2.7798080 33.3702663 -1.0149485
v -9.0542928 24.0449771 6.2102309
v -8.9982472 23.9957007 6.1807471
v -7.8904810 23.5871315 6.1995741
v -7.8153914 23.5847283 6.2277601
v -3.8370759 34.5492095 -2.1202249
v -3.8401549 34.4747735 -2.1556845
v -3.9323640 34.4258347 -2.1924929
v -3.9069088 34.5462419 -2.1552621
v -6.2804828 24.1956095 7.5061591
v -6.2580781 24.2436235 7.5664193
v -6.0366451 34.5695535 -1.0699257
v -6.0898109 34.5225383 -1.0304257
v -6.0659142 34.5711603 -0.9744357
v -5.9956012 34.6217923 -1.0089345
v -9.5564224 25.4993759 7.5521203
v -9.5790224 25.4514427 7.4918673
v -3.2932780 34.7189187 0.3249759
v -3.2993742 34.7629507 0.2542059
v -3.3581020 34.8134391 0.2812611
v -3.3490300 34.7683527 0.3547511
v -4.1817279 35.2697575 -1.4495497
v -4.1125579 35.2665827 -1.3686901
v -4.0954118 35.2422867 -1.4878109
v -4.1660381 35.2384683 -1.5240373
v -4.4305621 35.1773503 0.3449159
v -4.4118529 35.2108195 0.2723543
v -4.4874549 35.2124327 0.2381119
v -4.5057970 35.1802179 0.3171647
v -7.9205452 26.1076637 8.8690987
v -7.9957802 26.1105307 8.8413467
v -6.7828670 25.6502547 8.8482047
v -6.8386204 25.6996899 8.8779783
# 176 normals
vn -0.167033 0.237594 -0.956846
vn -0.571202 -0.427760 -0.700421
vn -0.615760 -0.393121 -0.682720
vn -0.206220 0.268449 -0.940945
vn 0.384728 -0.008301 -0.922908
vn -0.142862 0.291125 -0.945920
vn 0.440914 0.094214 -0.892572
vn 0.334310 -0.706098 -0.624062
vn 0.501679 -0.018495 -0.864829
vn 0.411097 -0.698224 -0.585912
vn 0.332601 -0.710645 -0.619880
vn -0.573399 -0.432979 -0.695385
vn 0.908961 0.074925 -0.410029
vn 0.895654 0.200177 -0.396966
vn 0.930294 -0.366294 -0.016358
vn 0.931850 0.154337 -0.328115
vn 0.941983 -0.334890 0.021791
vn 0.928829 -0.370018 -0.013306
vn 0.408381 -0.703626 -0.581334
vn 0.619850 0.404291 0.672526
vn 0.628670 0.777605 -0.001923
vn 0.586187 0.809925 0.015046
vn 0.574925 0.438473 0.690716
vn 0.617164 0.399438 0.677715
vn 0.940701 -0.338003 0.025423
vn 0.609199 0.790667 -0.060703
vn -0.167887 0.314533 -0.934231
vn 0.583013 0.811085 -0.045932
vn -0.625038 0.651956 -0.429134
vn -0.552554 0.705732 -0.443356
vn -0.938290 0.344900 -0.024019
vn -0.617225 -0.399408 -0.677715
vn -0.939602 0.341329 -0.021364
vn -0.926082 0.376824 0.013795
vn -0.612922 0.717756 -0.330159
vn -0.319416 0.715620 0.621071
vn -0.321278 0.711164 0.625130
vn 0.572972 0.433223 0.695569
vn -0.016633 0.998779 0.045993
vn -0.037569 0.996185 -0.077580
vn -0.151621 0.988342 0.002197
vn -0.398950 0.709394 0.580846
vn -0.927608 0.373070 0.017182
vn -0.400842 0.704511 0.585546
vn 0.740829 -0.081487 -0.666697
vn 0.708204 -0.604865 -0.363761
vn 0.633706 -0.640786 -0.433162
vn 0.662821 -0.122536 -0.738601
vn 0.951138 0.272630 -0.144510
vn 0.707288 -0.023134 -0.706372
vn 0.899316 0.417964 -0.128182
vn 0.948422 -0.064793 0.310047
vn 0.903314 0.425899 0.050449
vn 0.910151 0.045627 0.411677
vn 0.946927 -0.069432 0.313770
vn 0.705976 -0.609931 -0.359855
vn 0.509492 0.761552 0.400446
vn 0.370598 0.876335 0.307483
vn 0.392236 0.548801 0.738113
vn 0.338857 0.847891 0.407404
vn 0.308185 0.589269 0.746750
vn 0.391870 0.545474 0.740859
vn 0.908961 0.040072 0.414881
vn -0.630257 0.650308 0.423885
vn -0.374840 0.926936 0.011689
vn -0.455533 0.887780 -0.064884
vn -0.703778 0.614570 0.356101
vn -0.632241 0.645578 0.428096
vn 0.307087 0.586248 0.749588
vn -0.335439 0.940334 -0.056553
vn 0.651346 -0.045016 -0.757401
vn -0.393975 0.913386 -0.101904
vn -0.112525 -0.262315 -0.958310
vn -0.100928 -0.156046 -0.982482
vn -0.310963 -0.581121 -0.751938
vn 0.632119 -0.645669 -0.428218
vn -0.312061 -0.584020 -0.749191
vn -0.395105 -0.540072 -0.742996
vn -0.295886 -0.202283 -0.933498
vn -0.947781 0.083349 -0.307697
vn -0.949216 0.079076 -0.304309
vn -0.705304 0.610267 0.360465
vn -0.694012 0.471342 -0.544101
vn -0.602515 0.436916 -0.667857
vn -0.659464 0.262559 -0.704236
vn -0.909388 -0.031527 -0.414546
vn -0.396295 -0.543093 -0.740188
vn -0.910914 -0.035738 -0.410975
vn 0.653238 0.091741 -0.751541
vn 0.658610 -0.632058 -0.408075
vn 0.581151 -0.662455 -0.472441
vn 0.585332 0.064549 -0.808124
vn 0.879875 0.360343 -0.309559
vn 0.604987 0.183971 -0.774614
vn 0.797534 0.509064 -0.323567
vn 0.957334 -0.115333 0.264634
vn 0.861838 0.487853 -0.138162
vn 0.929378 -0.006012 0.369011
vn 0.956601 -0.117530 0.266557
vn 0.657419 -0.634652 -0.406061
vn 0.560245 0.793719 0.236800
vn 0.447232 0.888665 0.101172
vn 0.451047 0.514771 0.729018
vn 0.408564 0.879112 0.245102
vn 0.372429 0.557346 0.742050
vn 0.451016 0.512849 0.730391
vn 0.928737 -0.009186 0.370414
vn -0.579442 0.667308 0.467680
vn -0.218916 0.968443 -0.118995
vn -0.291033 0.939633 -0.179393
vn -0.657236 0.636636 0.403223
vn -0.581456 0.664652 0.469084
vn 0.370872 0.556217 0.743667
vn -0.150827 0.965940 -0.209882
vn 0.551975 0.167765 -0.816670
vn -0.206037 0.946347 -0.248520
vn -0.104926 -0.086889 -0.990600
vn -0.091741 0.061375 -0.993866
vn -0.376000 -0.551730 -0.744308
vn 0.581304 -0.664683 -0.469175
vn -0.375664 -0.553714 -0.743057
vn -0.454587 -0.508759 -0.731032
vn -0.272142 -0.033663 -0.961637
vn -0.957181 0.129128 -0.258774
vn -0.958005 0.127175 -0.256821
vn -0.658182 0.634316 0.405359
vn -0.552646 0.598486 -0.579961
vn -0.419093 0.581426 -0.697217
vn -0.546298 0.419337 -0.724928
vn -0.929622 0.016114 -0.368125
vn -0.455197 -0.510407 -0.729476
vn -0.930507 0.014039 -0.365867
vn -0.392083 0.518525 -0.759751
vn -0.919459 -0.012147 -0.392938
vn -0.930355 0.017305 -0.366203
vn -0.401209 0.545077 -0.736098
vn -0.013947 0.083440 -0.996338
vn -0.359794 0.545047 -0.757126
vn 0.063572 0.138619 -0.988281
vn -0.246048 -0.610267 -0.752945
vn 0.069798 0.037753 -0.996826
vn -0.189587 -0.630837 -0.752304
vn -0.246597 -0.611518 -0.751724
vn -0.920070 -0.013673 -0.391259
vn 0.634743 -0.138345 -0.760117
vn 0.671000 -0.054721 -0.739303
vn 0.610480 -0.653330 -0.447446
vn 0.698071 -0.105658 -0.708112
vn 0.636605 -0.642923 -0.425746
vn 0.609901 -0.654459 -0.446713
vn -0.190685 -0.632241 -0.750839
vn 0.931636 -0.013825 0.363090
vn 0.838949 0.493927 -0.228194
vn 0.828481 0.522005 -0.202405
vn 0.920619 0.015565 0.390099
vn 0.930812 -0.015046 0.365013
vn 0.636513 -0.643838 -0.424434
vn 0.816059 0.517121 -0.257920
vn -0.363761 0.563603 -0.741470
vn 0.811207 0.533175 -0.239974
vn -0.388574 0.919886 -0.052707
vn -0.331319 0.939999 -0.081151
vn -0.631844 0.646585 0.427181
vn -0.930812 0.015107 -0.364890
vn -0.632668 0.645486 0.427730
vn -0.605567 0.657114 0.448727
vn -0.330709 0.943539 0.013093
vn 0.258347 0.608405 0.750229
vn 0.257828 0.607123 0.751572
vn 0.919948 0.013978 0.391595
vn 0.406427 0.906549 0.113013
vn 0.358481 0.932918 0.030794
vn 0.309650 0.942318 0.126686
vn 0.200146 0.630715 0.749741
vn -0.606055 0.655985 0.449765
vn 0.199597 0.629128 0.751114
# 256 uv coords
vt 0.816920 0.766226
vt 0.812429 0.765976
vt 0.728521 0.830619
vt 0.747757 0.907386
vt 0.749977 0.911458
vt 0.800052 0.853476
vt 0.795956 0.851663
vt 0.884402 0.803531
vt 0.886451 0.808039
vt 0.817459 0.948713
vt 0.821897 0.949010
vt 0.838997 0.869288
vt 0.834893 0.867566
vt 0.903972 0.886093
vt 0.870632 0.751581
vt 0.869247 0.755714
vt 0.917361 0.829972
vt 0.957508 0.819684
vt 0.961477 0.817580
vt 0.926160 0.777387
vt 0.924595 0.781756
vt 0.896680 0.720402
vt 0.900842 0.718411
vt 0.987357 0.786238
vt 0.988867 0.782148
vt 0.936185 0.756319
vt 0.934588 0.760604
vt 0.941803 0.709275
vt 0.877264 0.934853
vt 0.876053 0.939187
vt 0.902492 0.990188
vt 0.943400 0.988815
vt 0.947849 0.987494
vt 0.923051 0.954781
vt 0.920434 0.958403
vt 0.904176 0.904094
vt 0.909016 0.903040
vt 0.974659 0.956679
vt 0.975898 0.952404
vt 0.934751 0.933715
vt 0.932210 0.937360
vt 0.950352 0.902786
vt 0.845390 0.549074
vt 0.841879 0.546265
vt 0.688696 0.549991
vt 0.646162 0.658290
vt 0.645599 0.662894
vt 0.753696 0.636661
vt 0.751416 0.632804
vt 0.893889 0.650460
vt 0.892935 0.655318
vt 0.694149 0.764229
vt 0.697593 0.767046
vt 0.783829 0.688076
vt 0.781488 0.684287
vt 0.847256 0.763736
vt 0.777227 0.694434
vt 0.758581 0.788867
vt 0.757194 0.793418
vt 0.694268 0.770744
vt 0.778027 0.687283
vt 0.690455 0.767266
vt 0.641061 0.663989
vt 0.641101 0.658964
vt 0.753185 0.626735
vt 0.757148 0.633766
vt 0.782108 0.693908
vt 0.685205 0.546418
vt 0.691230 0.545844
vt 0.758136 0.626309
vt 0.848859 0.545908
vt 0.898344 0.649254
vt 0.844585 0.767632
vt 0.687757 0.542614
vt 0.898204 0.654290
vt 0.845164 0.542704
vt 0.778492 0.526826
vt 0.848221 0.770836
vt 0.851003 0.767014
vt 0.779806 0.522347
vt 0.978900 0.958882
vt 0.950651 0.991227
vt 0.936342 0.939306
vt 0.943260 0.937218
vt 0.946024 0.993183
vt 0.980584 0.954051
vt 0.914176 0.959234
vt 0.919007 0.952801
vt 0.940772 0.932953
vt 0.974830 0.930793
vt 0.900610 0.994818
vt 0.979594 0.930349
vt 0.897667 0.989525
vt 0.911729 0.954818
vt 0.872996 0.932900
vt 0.901314 0.900477
vt 0.955000 0.903687
vt 0.896104 0.994000
vt 0.905994 0.898614
vt 0.871509 0.937520
vt 0.878169 0.961397
vt 0.956484 0.899077
vt 0.951873 0.898045
vt 0.873503 0.961881
vt 0.960346 0.823621
vt 0.917078 0.834917
vt 0.912667 0.830461
vt 0.918546 0.785736
vt 0.912600 0.835448
vt 0.964647 0.820983
vt 0.922144 0.776165
vt 0.991422 0.788555
vt 0.938775 0.761859
vt 0.947903 0.761124
vt 0.993305 0.783985
vt 0.942103 0.752413
vt 0.991209 0.760385
vt 0.996046 0.760861
vt 0.912737 0.776864
vt 0.866398 0.749374
vt 0.893471 0.717011
vt 0.946340 0.708823
vt 0.897850 0.714476
vt 0.864720 0.754009
vt 0.868068 0.777976
vt 0.946443 0.703911
vt 0.941746 0.704210
vt 0.863129 0.777763
vt 0.801170 0.849119
vt 0.797647 0.842470
vt 0.817909 0.761637
vt 0.887328 0.799962
vt 0.890141 0.804142
vt 0.840992 0.875029
vt 0.833823 0.872015
vt 0.793861 0.845701
vt 0.813048 0.761173
vt 0.770083 0.779968
vt 0.908928 0.886582
vt 0.904067 0.890817
vt 0.728168 0.825769
vt 0.816210 0.953327
vt 0.746917 0.914985
vt 0.837325 0.878311
vt 0.768566 0.775546
vt 0.908887 0.891307
vt 0.744030 0.910873
vt 0.723601 0.829742
vt 0.723464 0.825165
vt 0.821322 0.953947
vt 0.863784 0.937304
vt 0.865280 0.941828
vt 0.891401 0.002794
vt 0.891401 0.516541
vt 0.849032 0.516541
vt 0.849032 0.002794
vt 0.844475 0.002794
vt 0.844475 0.516541
vt 0.798925 0.516541
vt 0.798925 0.002794
vt 0.794301 0.002794
vt 0.794301 0.516541
vt 0.770804 0.516541
vt 0.770804 0.002794
vt 0.766180 0.002794
vt 0.766180 0.516541
vt 0.723853 0.516541
vt 0.723853 0.002794
vt 0.719300 0.002794
vt 0.719300 0.516541
vt 0.674263 0.516541
vt 0.674263 0.002794
vt 0.669704 0.002794
vt 0.669704 0.516541
vt 0.645561 0.516541
vt 0.645561 0.002794
vt 0.641061 0.002794
vt 0.641061 0.516541
vt 0.694441 0.984806
vt 0.649654 0.984806
vt 0.649654 0.779330
vt 0.694441 0.779330
vt 0.699047 0.779330
vt 0.699047 0.984806
vt 0.645030 0.779330
vt 0.645030 0.984806
vt 0.621941 0.984806
vt 0.621941 0.779330
vt 0.617349 0.779330
vt 0.617349 0.984806
vt 0.575774 0.984806
vt 0.575774 0.779330
vt 0.571168 0.779330
vt 0.571168 0.984806
vt 0.526849 0.984806
vt 0.526849 0.779330
vt 0.522319 0.779330
vt 0.522319 0.984806
vt 0.498702 0.984806
vt 0.498702 0.779330
vt 0.494137 0.779330
vt 0.494137 0.984806
vt 0.452514 0.984806
vt 0.452514 0.779330
vt 0.446647 0.754190
vt 0.446647 0.981939
vt 0.368042 0.981939
vt 0.368042 0.754190
vt 0.363484 0.754190
vt 0.363484 0.981939
vt 0.279263 0.981939
vt 0.279263 0.754190
vt 0.274638 0.754190
vt 0.274638 0.981939
vt 0.229282 0.981939
vt 0.229282 0.754190
vt 0.224659 0.754190
vt 0.224659 0.981939
vt 0.146095 0.981939
vt 0.146095 0.754190
vt 0.141544 0.754190
vt 0.141544 0.981939
vt 0.058285 0.981939
vt 0.058285 0.754190
vt 0.053727 0.754190
vt 0.053727 0.981939
vt 0.007293 0.981939
vt 0.007293 0.754190
vt 0.002794 0.754190
vt 0.002794 0.981939
vt 0.069434 0.747804
vt 0.002794 0.747804
vt 0.002794 0.002794
vt 0.069434 0.002794
vt 0.074059 0.002794
vt 0.074059 0.747804
vt 0.195935 0.747804
vt 0.195935 0.002794
vt 0.200492 0.002794
vt 0.200492 0.747804
vt 0.314380 0.747804
vt 0.314380 0.002794
vt 0.318880 0.002794
vt 0.318880 0.747804
vt 0.387016 0.747804
vt 0.387016 0.002794
vt 0.391575 0.002794
vt 0.391575 0.747804
vt 0.512048 0.747804
vt 0.512048 0.002794
vt 0.516600 0.002794
vt 0.516600 0.747804
vt 0.630445 0.747804
vt 0.630445 0.002794
vt 0.635069 0.002794
vt 0.635069 0.747804
# 156 polygons
usemtl initialShadingGroup
s 1
f 1/1/1 4/131/2 24/132/3 23/8/4
f 2/2/5 1/1/1 20/129/6 19/130/7
f 3/137/8 2/2/5 8/138/9 7/145/10
f 4/229/2 3/228/8 14/227/11 13/230/12
f 5/3/13 8/141/9 19/136/7 18/7/14
f 6/148/15 5/3/13 11/4/16 10/147/17
f 7/225/10 6/224/15 16/223/18 15/226/19
f 9/143/20 12/5/21 30/10/22 29/142/23
f 10/221/17 9/220/20 22/219/24 21/222/25
f 12/5/21 11/4/16 18/7/14 17/6/26
f 17/6/26 20/129/6 36/13/27 35/135/28
f 23/8/4 26/9/29 33/12/30 36/13/27
f 25/209/31 24/208/3 28/207/32 27/210/33
f 26/9/29 25/133/31 40/139/34 39/14/35
f 29/217/23 32/216/36 44/215/37 43/218/38
f 31/11/39 30/10/22 35/135/28 34/144/40
f 32/150/36 31/11/39 38/151/41 37/152/42
f 34/134/40 33/12/30 39/14/35 38/140/41
f 37/213/42 40/212/34 42/211/43 41/214/44
f 7/225/10 15/226/19 14/227/11 3/228/8
f 10/221/17 21/222/25 16/223/18 6/224/15
f 8/138/9 2/2/5 19/130/7
f 11/4/16 5/3/13 18/7/14
f 4/205/2 13/206/12 28/207/32 24/208/3
f 29/217/23 43/218/38 22/219/24 9/220/20
f 37/213/42 41/214/44 44/215/37 32/216/36
f 25/209/31 27/210/33 42/211/43 40/212/34
f 30/10/22 12/5/21 17/6/26 35/135/28
f 26/9/29 39/14/35 33/12/30
f 38/151/41 31/11/39 34/144/40
f 23/8/4 36/13/27 20/129/6 1/1/1
f 1/1/1 2/2/5 3/137/8 4/131/2
f 5/3/13 6/148/15 7/149/10 8/141/9
f 9/143/20 10/147/17 11/4/16 12/5/21
f 17/6/26 18/7/14 19/136/7 20/129/6
f 23/8/4 24/132/3 25/133/31 26/9/29
f 29/142/23 30/10/22 31/11/39 32/150/36
f 33/12/30 34/134/40 35/135/28 36/13/27
f 37/146/42 38/140/41 39/14/35 40/139/34
s 2
f 45/15/45 48/120/46 68/121/47 67/22/48
f 46/16/49 45/15/45 64/111/50 63/119/51
f 47/124/52 46/16/49 52/125/53 51/128/54
f 48/201/46 47/200/52 58/199/55 57/202/56
f 49/17/57 52/107/53 63/108/51 62/21/58
f 50/106/59 49/17/57 55/18/60 54/105/61
f 51/197/54 50/196/59 60/195/62 59/198/63
f 53/110/64 56/19/65 74/24/66 73/112/67
f 54/193/61 53/192/64 66/191/68 65/194/69
f 56/19/65 55/18/60 62/21/58 61/20/70
f 61/20/70 64/111/50 80/27/71 79/113/72
f 67/22/48 70/23/73 77/26/74 80/27/71
f 69/182/75 68/183/47 72/184/76 71/179/77
f 70/23/73 69/123/75 84/127/78 83/28/79
f 73/189/67 76/188/80 88/187/81 87/190/82
f 75/25/83 74/24/66 79/113/72 78/114/84
f 76/115/80 75/25/83 82/117/85 81/118/86
f 78/116/84 77/26/74 83/28/79 82/122/85
f 81/185/86 84/181/78 86/180/87 85/186/88
f 51/197/54 59/198/63 58/199/55 47/200/52
f 54/193/61 65/194/69 60/195/62 50/196/59
f 52/125/53 46/16/49 63/119/51
f 55/18/60 49/17/57 62/21/58
f 48/201/46 57/202/56 72/203/76 68/204/47
f 73/189/67 87/190/82 66/191/68 53/192/64
f 81/185/86 85/186/88 88/187/81 76/188/80
f 69/182/75 71/179/77 86/180/87 84/181/78
f 74/24/66 56/19/65 61/20/70 79/113/72
f 70/23/73 83/28/79 77/26/74
f 82/117/85 75/25/83 78/114/84
f 67/22/48 80/27/71 64/111/50 45/15/45
f 45/15/45 46/16/49 47/124/52 48/120/46
f 49/17/57 50/106/59 51/109/54 52/107/53
f 53/110/64 54/105/61 55/18/60 56/19/65
f 61/20/70 62/21/58 63/108/51 64/111/50
f 67/22/48 68/121/47 69/123/75 70/23/73
f 73/112/67 74/24/66 75/25/83 76/115/80
f 77/26/74 78/116/84 79/113/72 80/27/71
f 81/126/86 82/122/85 83/28/79 84/127/78
s 3
f 89/29/89 92/95/90 112/96/91 111/36/92
f 90/30/93 89/29/89 108/88/94 107/94/95
f 91/100/96 90/30/93 96/101/97 95/104/98
f 92/177/90 91/176/96 102/175/99 101/178/100
f 93/31/101 96/93/97 107/87/95 106/35/102
f 94/91/103 93/31/101 99/32/104 98/85/105
f 95/173/98 94/172/103 104/171/106 103/174/107
f 97/82/108 100/33/109 118/38/110 117/81/111
f 98/169/105 97/168/108 110/167/112 109/170/113
f 100/33/109 99/32/104 106/35/102 105/34/114
f 105/34/114 108/88/94 124/41/115 123/83/116
f 111/36/92 114/37/117 121/40/118 124/41/115
f 113/157/119 112/156/91 116/155/120 115/158/121
f 114/37/117 113/99/119 128/103/122 127/42/123
f 117/165/111 120/164/124 132/163/125 131/166/126
f 119/39/127 118/38/110 123/83/116 122/84/128
f 120/86/124 119/39/127 126/90/129 125/92/130
f 122/89/128 121/40/118 127/42/123 126/97/129
f 125/161/130 128/160/122 130/159/131 129/162/132
f 95/173/98 103/174/107 102/175/99 91/176/96
f 98/169/105 109/170/113 104/171/106 94/172/103
f 96/101/97 90/30/93 107/94/95
f 99/32/104 93/31/101 106/35/102
f 92/153/90 101/154/100 116/155/120 112/156/91
f 117/165/111 131/166/126 110/167/112 97/168/108
f 125/161/130 129/162/132 132/163/125 120/164/124
f 113/157/119 115/158/121 130/159/131 128/160/122
f 118/38/110 100/33/109 105/34/114 123/83/116
f 114/37/117 127/42/123 121/40/118
f 126/90/129 119/39/127 122/84/128
f 111/36/92 124/41/115 108/88/94 89/29/89
f 89/29/89 90/30/93 91/100/96 92/95/90
f 93/31/101 94/91/103 95/98/98 96/93/97
f 97/82/108 98/85/105 99/32/104 100/33/109
f 105/34/114 106/35/102 107/87/95 108/88/94
f 111/36/92 112/96/91 113/99/119 114/37/117
f 117/81/111 118/38/110 119/39/127 120/86/124
f 121/40/118 122/89/128 123/83/116 124/41/115
f 125/102/130 126/97/129 127/42/123 128/103/122
s 4
f 133/43/133 136/71/134 156/72/135 155/50/136
f 134/44/137 133/43/133 152/66/138 151/70/139
f 135/76/140 134/44/137 140/77/141 139/80/142
f 136/242/134 135/243/140 146/244/143 145/241/144
f 137/45/145 140/69/141 151/65/139 150/49/146
f 138/68/147 137/45/145 143/46/148 142/64/149
f 139/246/142 138/247/147 148/248/150 147/245/151
f 141/63/152 144/47/153 162/52/154 161/62/155
f 142/250/149 141/251/152 154/252/156 153/249/157
f 144/47/153 143/46/148 150/49/146 149/48/158
f 149/48/158 152/66/138 168/55/159 167/61/160
f 155/50/136 158/51/161 165/54/162 168/55/159
f 157/238/163 156/239/135 160/240/164 159/237/165
f 158/51/161 157/75/163 172/79/166 171/56/167
f 161/254/155 164/255/168 176/256/169 175/253/170
f 163/53/171 162/52/154 167/61/160 166/57/172
f 164/60/168 163/53/171 170/58/173 169/59/174
f 166/67/172 165/54/162 171/56/167 170/73/173
f 169/234/174 172/235/166 174/236/175 173/231/176
f 139/246/142 147/245/151 146/244/143 135/243/140
f 142/250/149 153/249/157 148/248/150 138/247/147
f 140/77/141 134/44/137 151/70/139
f 143/46/148 137/45/145 150/49/146
f 136/242/134 145/241/144 160/240/164 156/239/135
f 161/254/155 175/253/170 154/252/156 141/251/152
f 169/234/174 173/231/176 176/232/169 164/233/168
f 157/238/163 159/237/165 174/236/175 172/235/166
f 162/52/154 144/47/153 149/48/158 167/61/160
f 158/51/161 171/56/167 165/54/162
f 170/58/173 163/53/171 166/57/172
f 155/50/136 168/55/159 152/66/138 133/43/133
f 133/43/133 134/44/137 135/76/140 136/71/134
f 137/45/145 138/68/147 139/74/142 140/69/141
f 141/63/152 142/64/149 143/46/148 144/47/153
f 149/48/158 150/49/146 151/65/139 152/66/138
f 155/50/136 156/72/135 157/75/163 158/51/161
f 161/62/155 162/52/154 163/53/171 164/60/168
f 165/54/162 166/67/172 167/61/160 168/55/159
f 169/78/174 170/73/173 171/56/167 172/79/166
# h3dt: 176 256 176 156
