# This file uses centimeters as units for non-parametric coordinates.

mtllib Boid6_Low.mtl
g default
v 0.637041 4.466753 -0.471539
v 0.199895 4.466753 -0.329502
v 0.199895 4.466753 0.130140
v 0.637041 4.466753 0.272177
v 0.907212 4.466753 -0.099681
v 0.516217 5.386442 -0.099681
v 0.516217 3.547064 -0.099681
vt 0.595223 0.863803
vt 0.428828 0.952778
vt 0.323794 0.556239
vt 0.240212 0.957846
vt 0.069291 0.877959
vt 0.732669 0.523241
vt 0.704190 0.709762
vt 0.630319 0.085938
vt 0.730555 0.483717
vt 0.462861 0.172898
vt 0.352041 0.325611
vt 0.321312 0.511774
vt 0.988926 0.165096
vt 0.818982 0.083150
vn -0.292145 0.325199 -0.899387
vn -0.292145 0.325199 -0.899387
vn -0.292145 0.325199 -0.899387
vn -0.945640 0.325215 0.000000
vn -0.945640 0.325215 0.000000
vn -0.945640 0.325215 0.000000
vn -0.292145 0.325199 0.899387
vn -0.292145 0.325199 0.899387
vn -0.292145 0.325199 0.899387
vn 0.765049 0.325219 0.555817
vn 0.765049 0.325219 0.555817
vn 0.765049 0.325219 0.555817
vn 0.765049 0.325219 -0.555817
vn 0.765049 0.325219 -0.555817
vn 0.765049 0.325219 -0.555817
vn -0.292145 -0.325199 -0.899387
vn -0.292145 -0.325199 -0.899387
vn -0.292145 -0.325199 -0.899387
vn -0.945640 -0.325215 0.000000
vn -0.945640 -0.325215 0.000000
vn -0.945640 -0.325215 0.000000
vn -0.292145 -0.325199 0.899387
vn -0.292145 -0.325199 0.899387
vn -0.292145 -0.325199 0.899387
vn 0.765049 -0.325219 0.555817
vn 0.765049 -0.325219 0.555817
vn 0.765049 -0.325219 0.555817
vn 0.765049 -0.325219 -0.555817
vn 0.765049 -0.325219 -0.555817
vn 0.765049 -0.325219 -0.555817
s off
g boid6
usemtl initialShadingGroup
f 1/1/1 2/2/2 6/3/3
f 2/2/4 3/4/5 6/3/6
f 3/4/7 4/5/8 6/3/9
f 4/6/10 5/7/11 6/3/12
f 5/7/13 1/1/14 6/3/15
f 1/8/16 7/9/17 2/10/18
f 2/10/19 7/9/20 3/11/21
f 3/11/22 7/9/23 4/12/24
f 4/13/25 7/9/26 5/14/27
f 5/14/28 7/9/29 1/8/30
