# Blender v2.80 (sub 75) OBJ File: ''
# www.blender.org
mtllib Rock_Big01.mtl
o Rock_Big01
v 0.113246 1.124118 0.890242
v 0.096837 0.633830 1.015726
v 1.915818 0.451925 1.012385
v 1.771005 1.124118 1.086509
v -0.283008 0.698030 -1.981180
v -0.283008 1.308396 -2.206538
v 1.915818 1.308396 -2.222190
v 1.915818 0.090618 -1.975771
v 2.172331 1.461086 0.592307
v 2.563598 0.211938 0.443085
v 2.563598 0.345971 -0.432166
v 2.563598 1.461853 -0.432166
v -3.352916 1.837822 -0.457008
v -3.516294 1.606647 -0.457008
v -2.821774 1.461086 0.272753
v -0.267358 1.954976 -1.660452
v -0.251705 2.197397 -0.434408
v 2.172331 1.837822 -0.432166
v 1.848408 1.954976 -1.327267
v -0.251705 0.124118 -0.434408
v -2.821774 0.566119 0.272753
v -1.872388 0.614938 0.543253
v -1.872388 1.124118 0.543253
v -3.028994 1.954976 -1.097472
v -2.705137 1.308396 -1.737809
v 0.001033 1.777397 0.502333
v 0.001033 0.124118 0.578042
v -2.418677 0.789316 -1.590712
v -3.069025 0.566119 -0.457008
vt 0.720492 0.284235
vt 0.663915 0.281549
vt 0.656000 0.065693
vt 0.728387 0.083942
vt 0.965463 0.198754
vt 0.893711 0.166137
vt 0.851889 0.000187
vt 0.999813 0.041545
vt 0.364891 0.637881
vt 0.498131 0.644159
vt 0.478421 0.737955
vt 0.357870 0.732187
vt 0.798616 0.725779
vt 0.771870 0.744182
vt 0.748353 0.645933
vt 0.067897 0.348450
vt 0.197884 0.355531
vt 0.187368 0.637117
vt 0.092013 0.594133
vt 0.445521 0.320338
vt 0.613559 0.308144
vt 0.613559 0.560323
vt 0.457163 0.634295
vt 0.649054 0.642350
vt 0.656386 0.524481
vt 0.712881 0.526520
vt 0.643106 0.000187
vt 0.776616 0.048308
vt 0.844749 0.593992
vt 0.838771 0.493853
vt 0.929189 0.401634
vt 0.877062 0.608579
vt 0.300364 0.392393
vt 0.300364 0.645070
vt 0.798616 0.308365
vt 0.340498 0.351032
vt 0.364147 0.637507
vt 0.300738 0.358246
vt 0.305132 0.563985
vt 0.365100 0.953189
vt 0.498131 0.932882
vt 0.014053 0.347591
vt 0.000187 0.600923
vt 0.985759 0.402791
vt 0.999813 0.585959
vt 0.659424 0.687101
vt 0.300738 0.856041
vt 0.318069 0.746531
vt 0.187996 0.684511
vt 0.613933 0.300138
vt 0.443408 0.000187
vt 0.367926 0.029614
vt 0.566616 0.068566
vt 0.798990 0.222014
vt 0.215308 0.000187
vt 0.143752 0.033272
vt 0.293660 0.067730
vn -0.0944 0.3726 0.9232
vn -0.1061 -0.3888 0.9152
vn 0.2008 -0.4777 0.8552
vn 0.1636 0.3854 0.9081
vn -0.1105 -0.8365 -0.5367
vn -0.0810 0.2955 -0.9519
vn 0.4462 0.2335 -0.8639
vn 0.2580 -0.8479 -0.4631
vn 0.4318 0.7297 0.5302
vn 0.4650 -0.8585 0.2163
vn 0.5236 -0.8370 -0.1589
vn 0.9687 0.1869 -0.1634
vn -0.2416 0.9610 0.1344
vn -0.9691 -0.2042 -0.1383
vn -0.2982 0.6887 0.6609
vn -0.0268 0.9048 -0.4249
vn -0.0104 0.9824 0.1865
vn 0.2816 0.9542 0.1008
vn 0.2300 0.9162 -0.3282
vn -0.0858 -0.9896 -0.1154
vn -0.3639 -0.8632 0.3500
vn -0.2184 -0.3274 0.9193
vn -0.1807 0.2922 0.9391
vn -0.1951 0.9219 -0.3347
vn -0.4185 0.2330 -0.8778
vn -0.0137 0.8187 0.5740
vn -0.0506 -0.9749 0.2169
vn -0.2708 -0.8072 -0.5245
vn -0.4276 -0.8932 -0.1387
usemtl Default_OBJ
s 1
f 1/1/1 2/2/2 3/3/3 4/4/4
f 5/5/5 6/6/6 7/7/7 8/8/8
f 9/9/9 10/10/10 11/11/11 12/12/12
f 13/13/13 14/14/14 15/15/15
f 16/16/16 17/17/17 18/18/18 19/19/19
f 20/20/20 5/21/5 8/22/8 11/23/11
f 21/24/21 22/25/22 23/26/23 15/15/15
f 3/3/3 10/27/10 9/28/9 4/4/4
f 13/29/13 24/30/24 25/31/25 14/32/14
f 17/17/17 26/33/26 9/34/9 18/18/18
f 26/35/26 1/1/1 4/4/4 9/28/9
f 27/36/27 20/20/20 11/23/11 10/37/10
f 2/38/2 27/36/27 10/37/10 3/39/3
f 7/40/7 12/12/12 11/11/11 8/41/8
f 6/42/6 16/16/16 19/19/19 7/43/7
f 14/32/14 25/31/25 28/44/28 29/45/29
f 15/15/15 14/14/14 29/46/29 21/24/21
f 7/40/7 19/47/19 18/48/18 12/12/12
f 9/34/9 12/49/12 18/18/18
f 21/24/21 27/50/27 2/2/2 22/25/22
f 29/51/29 20/20/20 27/36/27 21/52/21
f 29/51/29 28/53/28 5/21/5 20/20/20
f 28/44/28 25/31/25 6/6/6 5/5/5
f 25/31/25 24/30/24 16/54/16 6/6/6
f 13/55/13 17/17/17 16/16/16 24/56/24
f 15/57/15 26/33/26 17/17/17 13/55/13
f 15/15/15 23/26/23 1/1/1 26/35/26
f 23/26/23 22/25/22 2/2/2 1/1/1
