# Blender v2.80 (sub 75) OBJ File: ''
# www.blender.org
mtllib Rock02.mtl
o Rock02
v 0.113246 1.171958 1.587949
v 0.096837 0.633830 1.264443
v 1.915818 0.451925 1.012385
v 1.771005 1.124118 1.086509
v -0.283008 0.698030 -1.981180
v -0.283008 1.321763 -2.206538
v 1.915818 1.308396 -2.222190
v 1.915818 0.090618 -1.975771
v 2.172331 1.461086 0.592307
v 2.563598 0.211938 0.443085
v 2.563598 0.345971 -0.432166
v 2.563598 1.461853 -0.432166
v -1.817587 1.805327 -0.448833
v -1.941252 1.546082 -0.442452
v -1.685437 1.415841 0.272753
v -0.267358 2.592797 -1.660452
v -0.251705 2.835218 -0.434408
v 2.172331 1.837822 -0.432166
v 1.848408 1.954976 -1.327267
v -0.251705 0.124118 -0.434408
v -1.919664 0.546123 0.272753
v -1.471967 0.606526 0.543253
v -1.469815 1.090632 0.543253
v -1.621478 1.930687 -1.062227
v -1.615278 1.305583 -1.656053
v 0.001033 2.415218 0.502333
v 0.001033 0.124118 0.578042
v -1.516440 0.779654 -1.529790
v -2.011838 0.534258 -0.450844
vt 0.586436 0.621307
vt 0.665322 0.635363
vt 0.656552 0.858988
vt 0.572960 0.830941
vt 0.968611 0.689580
vt 0.885458 0.700420
vt 0.845069 0.450390
vt 0.999816 0.425945
vt 0.276512 0.079658
vt 0.393018 0.061576
vt 0.409359 0.168521
vt 0.340862 0.192851
vt 0.558493 0.173485
vt 0.591121 0.174440
vt 0.604796 0.260541
vt 0.048055 0.425578
vt 0.000184 0.284807
vt 0.282144 0.209630
vt 0.270573 0.325669
vt 0.285844 0.611239
vt 0.275035 0.790740
vt 0.043972 0.754186
vt 0.000184 0.578800
vt 0.754822 0.425945
vt 0.728099 0.470523
vt 0.667372 0.464321
vt 0.640633 0.441947
vt 0.691803 0.954026
vt 0.538769 0.887200
vt 0.537696 0.093158
vt 0.608333 0.013072
vt 0.022692 0.158776
vt 0.078756 0.000184
vt 0.246769 0.022378
vt 0.273014 0.496039
vt 0.010067 0.480091
vt 0.277267 0.425945
vt 0.086107 0.428533
vt 0.341524 0.416453
vt 0.409359 0.360615
vt 0.755190 0.737775
vt 0.804450 0.488405
vt 0.668715 0.023900
vt 0.710918 0.167402
vt 0.710918 0.258158
vt 0.754822 0.649572
vt 0.469871 0.640786
vt 0.469871 0.559725
vt 0.407838 0.757372
vt 0.999816 0.839080
vt 0.934065 0.860513
vt 0.883031 0.885975
vt 0.409727 0.157740
vt 0.433252 0.000184
vt 0.458344 0.270066
vt 0.470239 0.621083
vn -0.0647 0.3748 0.9249
vn -0.1040 -0.5926 0.7987
vn 0.2440 -0.6105 0.7535
vn 0.3409 0.3967 0.8523
vn -0.1384 -0.8267 -0.5454
vn -0.1036 0.2468 -0.9635
vn 0.4394 0.2033 -0.8750
vn 0.2575 -0.8472 -0.4647
vn 0.5341 0.6707 0.5147
vn 0.4566 -0.8645 0.2099
vn 0.5236 -0.8370 -0.1589
vn 0.9687 0.1869 -0.1634
vn -0.6129 0.7651 0.1975
vn -0.9863 0.1269 -0.1055
vn -0.5936 0.5610 0.5769
vn -0.0193 0.8514 -0.5242
vn -0.0095 0.9877 0.1558
vn 0.4659 0.8821 0.0696
vn 0.3769 0.8199 -0.4310
vn -0.1009 -0.9892 -0.1061
vn -0.5515 -0.7917 0.2628
vn -0.3870 -0.5433 0.7450
vn -0.5025 0.3180 0.8040
vn -0.5883 0.6976 -0.4091
vn -0.6380 0.1957 -0.7447
vn 0.0067 0.8250 0.5651
vn -0.0535 -0.9797 0.1932
vn -0.4627 -0.7289 -0.5045
vn -0.5800 -0.8002 -0.1530
usemtl Default_OBJ
s 1
f 1/1/1 2/2/2 3/3/3 4/4/4
f 5/5/5 6/6/6 7/7/7 8/8/8
f 9/9/9 10/10/10 11/11/11 12/12/12
f 13/13/13 14/14/14 15/15/15
f 16/16/16 17/17/17 18/18/18 19/19/19
f 20/20/20 5/21/5 8/22/8 11/23/11
f 21/24/21 22/25/22 23/26/23 15/27/15
f 3/3/3 10/28/10 9/29/9 4/4/4
f 13/13/13 24/30/24 25/31/25 14/14/14
f 17/17/17 26/32/26 9/9/9 18/18/18
f 26/32/26 1/33/1 4/34/4 9/9/9
f 27/35/27 20/20/20 11/23/11 10/36/10
f 2/37/2 27/35/27 10/36/10 3/38/3
f 7/39/7 12/12/12 11/11/11 8/40/8
f 6/6/6 16/41/16 19/42/19 7/7/7
f 14/14/14 25/31/25 28/43/28 29/44/29
f 15/15/15 14/14/14 29/44/29 21/45/21
f 7/39/7 19/19/19 18/18/18 12/12/12
f 9/9/9 12/12/12 18/18/18
f 21/24/21 27/46/27 2/2/2 22/25/22
f 29/47/29 20/20/20 27/35/27 21/48/21
f 29/47/29 28/49/28 5/21/5 20/20/20
f 28/50/28 25/51/25 6/6/6 5/5/5
f 25/51/25 24/52/24 16/41/16 6/6/6
f 13/13/13 17/53/17 16/54/16 24/30/24
f 15/15/15 26/55/26 17/53/17 13/13/13
f 15/27/15 23/26/23 1/1/1 26/56/26
f 23/26/23 22/25/22 2/2/2 1/1/1
