# Blender v2.80 (sub 75) OBJ File: ''
# www.blender.org
mtllib Rock03.mtl
o Rock03
v 0.273132 1.434135 2.271009
v 0.233556 0.641219 1.809045
v 4.620665 0.451925 1.447865
v 4.271399 1.122865 1.553874
v -0.682572 0.625524 -4.813269
v -0.682572 1.302278 -4.794061
v 3.047050 1.308397 -4.610534
v 3.673130 0.090619 -4.478893
v 5.239334 1.461086 0.847089
v 6.183012 0.211938 0.633680
v 6.164450 0.345971 -0.658481
v 6.183012 1.461853 -0.618063
v -3.020355 2.464551 -1.123743
v -4.328646 2.152998 -0.941507
v -3.964745 1.505758 0.814004
v -0.283537 2.524320 -2.963776
v 1.551417 2.537333 -0.631935
v 5.239334 1.837822 -0.618063
v 4.171881 1.954976 -2.113704
v -0.607073 -0.059228 -3.512997
v -4.622580 0.546123 1.011743
v -3.550163 0.595041 1.376453
v -3.502214 1.081993 1.390294
v -2.449706 2.346420 -2.651599
v -3.391985 1.689577 -3.623896
v 0.870626 2.293951 0.718413
v 0.002492 0.109780 0.281638
v -3.512604 1.106784 -3.347761
v -4.911665 0.589460 -0.361116
vt 0.906324 0.463215
vt 0.860387 0.447742
vt 0.830132 0.168640
vt 0.874411 0.194835
vt 0.978439 0.264492
vt 0.939258 0.270654
vt 0.913589 0.047234
vt 0.980779 0.000181
vt 0.900161 0.111739
vt 0.816428 0.044615
vt 0.840979 0.000181
vt 0.913227 0.002592
vt 0.198950 0.082311
vt 0.193607 0.000181
vt 0.298649 0.007829
vt 0.120118 0.274248
vt 0.279334 0.363509
vt 0.317311 0.599625
vt 0.217080 0.548417
vt 0.742072 0.253882
vt 0.816066 0.240027
vt 0.816066 0.512386
vt 0.602261 0.682228
vt 0.023851 0.694020
vt 0.068133 0.661750
vt 0.095330 0.670341
vt 0.094575 0.719907
vt 0.113709 0.135907
vt 0.041853 0.091880
vt 0.350843 0.307364
vt 0.402489 0.585848
vt 0.431999 0.258292
vt 0.431999 0.519446
vt 0.522144 0.308099
vt 0.527078 0.689948
vt 0.432360 0.326862
vt 0.472295 0.596329
vt 0.170437 0.661750
vt 0.170437 0.972870
vt 0.106687 0.968615
vt 0.095692 0.689089
vt 0.000181 0.277619
vt 0.052514 0.509790
vt 0.095330 0.847914
vt 0.073091 0.999819
vt 0.041698 0.971563
vt 0.000181 0.784737
vt 0.325758 0.661388
vt 0.458990 0.024510
vt 0.441999 0.092017
vt 0.538000 0.000181
vt 0.717257 0.070183
vt 0.980779 0.456640
vt 0.944156 0.451304
vt 0.335801 0.033288
vt 0.913227 0.660183
vt 0.881856 0.661681
vn -0.0311 0.5486 0.8355
vn -0.0160 -0.8004 0.5993
vn 0.0872 -0.8340 0.5449
vn 0.2026 0.5081 0.8371
vn -0.1350 -0.8742 -0.4664
vn -0.0175 0.6728 -0.7396
vn 0.3008 0.6498 -0.6980
vn 0.3086 -0.8545 -0.4178
vn 0.3369 0.8201 0.4625
vn 0.1547 -0.9811 0.1161
vn 0.3038 -0.9429 -0.1365
vn 0.8306 0.4150 -0.3713
vn -0.1286 0.9848 0.1164
vn -0.7753 0.6135 -0.1501
vn -0.3034 0.8594 0.4117
vn 0.0376 0.9592 -0.2804
vn 0.0841 0.9912 0.1019
vn 0.2708 0.9626 -0.0124
vn 0.2269 0.9397 -0.2557
vn -0.0852 -0.9914 -0.0995
vn -0.2469 -0.9579 0.1466
vn -0.0979 -0.8281 0.5520
vn -0.2123 0.6116 0.7621
vn -0.1238 0.9625 -0.2412
vn -0.5145 0.5905 -0.6218
vn 0.0001 0.9218 0.3878
vn -0.0189 -0.9957 0.0905
vn -0.6181 -0.6149 -0.4898
vn -0.3747 -0.9270 -0.0157
usemtl Default_OBJ
s 1
f 1/1/1 2/2/2 3/3/3 4/4/4
f 5/5/5 6/6/6 7/7/7 8/8/8
f 9/9/9 10/10/10 11/11/11 12/12/12
f 13/13/13 14/14/14 15/15/15
f 16/16/16 17/17/17 18/18/18 19/19/19
f 20/20/20 5/21/5 8/22/8 11/23/11
f 21/24/21 22/25/22 23/26/23 15/27/15
f 3/3/3 10/10/10 9/9/9 4/4/4
f 13/13/13 24/28/24 25/29/25 14/14/14
f 17/17/17 26/30/26 9/31/9 18/18/18
f 26/30/26 1/32/1 4/33/4 9/31/9
f 27/34/27 20/20/20 11/23/11 10/35/10
f 2/36/2 27/34/27 10/35/10 3/37/3
f 7/38/7 12/39/12 11/40/11 8/41/8
f 6/42/6 16/16/16 19/19/19 7/43/7
f 14/44/14 25/45/25 28/46/28 29/47/29
f 15/27/15 14/44/14 29/47/29 21/24/21
f 7/43/7 19/19/19 18/18/18 12/48/12
f 9/31/9 12/48/12 18/18/18
f 21/49/21 27/34/27 2/36/2 22/50/22
f 29/51/29 20/20/20 27/34/27 21/49/21
f 29/51/29 28/52/28 5/21/5 20/20/20
f 28/53/28 25/54/25 6/6/6 5/5/5
f 25/29/25 24/28/24 16/16/16 6/42/6
f 13/13/13 17/17/17 16/16/16 24/28/24
f 15/15/15 26/30/26 17/17/17 13/13/13
f 15/15/15 23/55/23 1/32/1 26/30/26
f 23/56/23 22/57/22 2/2/2 1/1/1
